<!DOCTYPE svg PUBLIC "-//W3C//DTD SVG 1.1//EN" "http://www.w3.org/Graphics/SVG/1.1/DTD/svg11.dtd">
<!-- Uploaded to: SVG Repo, www.svgrepo.com, Transformed by: SVG Repo Mixer Tools -->
<svg width="800px" height="800px" viewBox="0 0 512 512" xmlns="http://www.w3.org/2000/svg" fill="#000000" transform="matrix(-1, 0, 0, 1, 0, 0)">
<g id="SVGRepo_bgCarrier" stroke-width="0"/>
<g id="SVGRepo_tracerCarrier" stroke-linecap="round" stroke-linejoin="round"/>
<g id="SVGRepo_iconCarrier"> <path fill="var(--ci-primary-color, #000000)" d="M72,203.517l160-32V381.186h.044Q232,382.588,232,384c0,55.794,48.448,101.186,108,101.186S448,439.794,448,384,399.552,282.814,340,282.814a111.434,111.434,0,0,0-76,29.367V28.483L72,66.883Zm268,111.3c41.906,0,76,31.037,76,69.186s-34.094,69.186-76,69.186S264,422.149,264,384,298.094,314.814,340,314.814ZM104,93.117l128-25.6v71.366l-128,25.6Z" class="ci-primary"/> </g>
</svg>